<svg width="500" height="215" viewBox="0 0 500 215" xmlns="http://www.w3.org/2000/svg">
<rect width="500" height="215" fill="#0b1a2a"/>
<text x="5" y="24" font-size="8" fill="#556">23.6</text>
<text x="5" y="190" font-size="8" fill="#556">12.1</text>
<polyline fill="none" stroke="#00ffcc" stroke-width="2" points="20.0,175.2 47.1,178.2 74.1,178.2 101.2,178.2 128.2,179.7 155.3,190.0 182.4,20.0 209.4,62.9 236.5,62.9 263.5,91.0 290.6,172.3 317.6,184.1 344.7,49.6 371.8,83.6 398.8,160.4 425.9,182.6 452.9,71.7 480.0,64.3"/>
<polyline fill="none" stroke="#ff9944" stroke-width="1" stroke-dasharray="3,2" opacity="0.7" points="20.0,176.7 47.1,177.2 74.1,178.2 101.2,178.7 128.2,182.6 155.3,129.9 182.4,91.0 209.4,48.6 236.5,72.2 263.5,108.7 290.6,149.1 317.6,135.3 344.7,105.7 371.8,97.9 398.8,142.2 425.9,138.3 452.9,106.2 480.0,68.0"/>
<text x="10" y="13" font-size="9" fill="#aaa">Temp (°C) — last 18 readings</text>
<text x="495" y="13" font-size="7" fill="#445" text-anchor="end">— MA3</text>
<text x="10" y="212" font-size="8" fill="#445">Updated: 2026-04-18 01:22 UTC</text>
</svg>