<svg width="500" height="215" viewBox="0 0 500 215" xmlns="http://www.w3.org/2000/svg">
<rect width="500" height="215" fill="#0b1a2a"/>
<text x="5" y="24" font-size="8" fill="#556">26.3</text>
<text x="5" y="190" font-size="8" fill="#556">14.7</text>
<polyline fill="none" stroke="#00ffcc" stroke-width="2" points="20.0,144.6 44.2,141.6 68.4,99.1 92.6,100.6 116.8,146.0 141.1,149.0 165.3,91.8 189.5,87.4 213.7,157.8 237.9,147.5 262.1,58.1 286.3,90.3 310.5,187.1 334.7,162.2 358.9,20.0 383.2,151.9 407.4,190.0 431.6,21.5 455.8,65.4 480.0,143.1"/>
<polyline fill="none" stroke="#ff9944" stroke-width="1" stroke-dasharray="3,2" opacity="0.7" points="20.0,143.1 44.2,128.4 68.4,113.8 92.6,115.3 116.8,131.9 141.1,128.9 165.3,109.4 189.5,112.3 213.7,130.9 237.9,121.1 262.1,98.6 286.3,111.8 310.5,146.5 334.7,123.1 358.9,111.4 383.2,120.6 407.4,121.1 431.6,92.3 455.8,76.7 480.0,104.3"/>
<text x="10" y="13" font-size="9" fill="#aaa">Temp (°C) — last 20 readings</text>
<text x="495" y="13" font-size="7" fill="#445" text-anchor="end">— MA3</text>
<text x="10" y="212" font-size="8" fill="#445">Updated: 2026-07-05 08:39 UTC</text>
</svg>