<svg width="500" height="215" viewBox="0 0 500 215" xmlns="http://www.w3.org/2000/svg">
<rect width="500" height="215" fill="#0b1a2a"/>
<text x="5" y="24" font-size="8" fill="#556">27.6</text>
<text x="5" y="190" font-size="8" fill="#556">12.9</text>
<polyline fill="none" stroke="#00ffcc" stroke-width="2" points="20.0,131.0 44.2,20.0 68.4,124.1 92.6,164.6 116.8,148.4 141.1,94.0 165.3,132.2 189.5,168.0 213.7,155.3 237.9,105.6 262.1,136.8 286.3,159.9 310.5,162.2 334.7,106.7 358.9,143.7 383.2,190.0 407.4,161.1 431.6,80.1 455.8,135.6 480.0,170.3"/>
<polyline fill="none" stroke="#ff9944" stroke-width="1" stroke-dasharray="3,2" opacity="0.7" points="20.0,75.5 44.2,91.7 68.4,102.9 92.6,145.7 116.8,135.6 141.1,124.9 165.3,131.4 189.5,151.8 213.7,143.0 237.9,132.6 262.1,134.1 286.3,153.0 310.5,143.0 334.7,137.6 358.9,146.8 383.2,164.9 407.4,143.7 431.6,125.6 455.8,128.7 480.0,153.0"/>
<text x="10" y="13" font-size="9" fill="#aaa">Temp (°C) — last 20 readings</text>
<text x="495" y="13" font-size="7" fill="#445" text-anchor="end">— MA3</text>
<text x="10" y="212" font-size="8" fill="#445">Updated: 2026-05-26 09:35 UTC</text>
</svg>