<svg width="500" height="215" viewBox="0 0 500 215" xmlns="http://www.w3.org/2000/svg">
<rect width="500" height="215" fill="#0b1a2a"/>
<text x="5" y="24" font-size="8" fill="#556">26.8</text>
<text x="5" y="190" font-size="8" fill="#556">12.2</text>
<polyline fill="none" stroke="#00ffcc" stroke-width="2" points="20.0,88.7 44.2,136.4 68.4,177.2 92.6,144.6 116.8,75.9 141.1,122.5 165.3,177.2 189.5,190.0 213.7,43.3 237.9,112.0 262.1,156.2 286.3,179.5 310.5,21.2 334.7,101.5 358.9,160.9 383.2,110.8 407.4,20.0 431.6,114.3 455.8,142.3 480.0,120.1"/>
<polyline fill="none" stroke="#ff9944" stroke-width="1" stroke-dasharray="3,2" opacity="0.7" points="20.0,112.6 44.2,134.1 68.4,152.7 92.6,132.6 116.8,114.3 141.1,125.2 165.3,163.2 189.5,136.8 213.7,115.1 237.9,103.8 262.1,149.2 286.3,119.0 310.5,100.7 334.7,94.5 358.9,124.4 383.2,97.2 407.4,81.7 431.6,92.2 455.8,125.6 480.0,131.2"/>
<text x="10" y="13" font-size="9" fill="#aaa">Temp (°C) — last 20 readings</text>
<text x="495" y="13" font-size="7" fill="#445" text-anchor="end">— MA3</text>
<text x="10" y="212" font-size="8" fill="#445">Updated: 2026-06-02 15:59 UTC</text>
</svg>