<svg width="500" height="215" viewBox="0 0 500 215" xmlns="http://www.w3.org/2000/svg">
<rect width="500" height="215" fill="#0b1a2a"/>
<text x="5" y="24" font-size="8" fill="#556">35.7</text>
<text x="5" y="190" font-size="8" fill="#556">19.7</text>
<polyline fill="none" stroke="#00ffcc" stroke-width="2" points="20.0,48.7 44.2,81.6 68.4,157.1 92.6,159.2 116.8,20.0 141.1,123.1 165.3,68.9 189.5,117.8 213.7,43.4 237.9,82.7 262.1,158.1 286.3,98.6 310.5,20.0 334.7,133.7 358.9,173.0 383.2,141.1 407.4,44.4 431.6,147.5 455.8,190.0 480.0,84.8"/>
<polyline fill="none" stroke="#ff9944" stroke-width="1" stroke-dasharray="3,2" opacity="0.7" points="20.0,65.2 44.2,95.8 68.4,132.6 92.6,112.1 116.8,100.7 141.1,70.6 165.3,103.2 189.5,76.7 213.7,81.3 237.9,94.7 262.1,113.1 286.3,92.2 310.5,84.1 334.7,108.9 358.9,149.3 383.2,119.5 407.4,111.0 431.6,127.3 455.8,140.8 480.0,137.4"/>
<text x="10" y="13" font-size="9" fill="#aaa">Temp (°C) — last 20 readings</text>
<text x="495" y="13" font-size="7" fill="#445" text-anchor="end">— MA3</text>
<text x="10" y="212" font-size="8" fill="#445">Updated: 2026-08-31 22:10 UTC</text>
</svg>