<svg width="500" height="215" viewBox="0 0 500 215" xmlns="http://www.w3.org/2000/svg">
<rect width="500" height="215" fill="#0b1a2a"/>
<text x="5" y="24" font-size="8" fill="#556">23.6</text>
<text x="5" y="190" font-size="8" fill="#556">12.1</text>
<polyline fill="none" stroke="#00ffcc" stroke-width="2" points="20.0,175.2 48.8,178.2 77.5,178.2 106.2,178.2 135.0,179.7 163.8,190.0 192.5,20.0 221.2,62.9 250.0,62.9 278.8,91.0 307.5,172.3 336.2,184.1 365.0,49.6 393.8,83.6 422.5,160.4 451.2,182.6 480.0,71.7"/>
<polyline fill="none" stroke="#ff9944" stroke-width="1" stroke-dasharray="3,2" opacity="0.7" points="20.0,176.7 48.8,177.2 77.5,178.2 106.2,178.7 135.0,182.6 163.8,129.9 192.5,91.0 221.2,48.6 250.0,72.2 278.8,108.7 307.5,149.1 336.2,135.3 365.0,105.7 393.8,97.9 422.5,142.2 451.2,138.3 480.0,127.2"/>
<text x="10" y="13" font-size="9" fill="#aaa">Temp (°C) — last 17 readings</text>
<text x="495" y="13" font-size="7" fill="#445" text-anchor="end">— MA3</text>
<text x="10" y="212" font-size="8" fill="#445">Updated: 2026-04-17 18:43 UTC</text>
</svg>