<svg width="500" height="215" viewBox="0 0 500 215" xmlns="http://www.w3.org/2000/svg">
<rect width="500" height="215" fill="#0b1a2a"/>
<text x="5" y="24" font-size="8" fill="#556">32.7</text>
<text x="5" y="190" font-size="8" fill="#556">19.7</text>
<polyline fill="none" stroke="#00ffcc" stroke-width="2" points="20.0,158.6 44.2,178.2 68.4,179.5 92.6,37.0 116.8,81.5 141.1,158.6 165.3,178.2 189.5,44.8 213.7,105.0 237.9,165.2 262.1,167.8 286.3,78.8 310.5,112.8 334.7,182.2 358.9,190.0 383.2,20.0 407.4,102.4 431.6,167.8 455.8,188.7 480.0,48.8"/>
<polyline fill="none" stroke="#ff9944" stroke-width="1" stroke-dasharray="3,2" opacity="0.7" points="20.0,168.4 44.2,172.1 68.4,131.6 92.6,99.3 116.8,92.4 141.1,139.4 165.3,127.2 189.5,109.4 213.7,105.0 237.9,146.0 262.1,137.3 286.3,119.8 310.5,124.6 334.7,161.7 358.9,130.7 383.2,104.1 407.4,96.7 431.6,152.9 455.8,135.1 480.0,118.7"/>
<text x="10" y="13" font-size="9" fill="#aaa">Temp (°C) — last 20 readings</text>
<text x="495" y="13" font-size="7" fill="#445" text-anchor="end">— MA3</text>
<text x="10" y="212" font-size="8" fill="#445">Updated: 2026-07-24 19:11 UTC</text>
</svg>