<svg width="500" height="215" viewBox="0 0 500 215" xmlns="http://www.w3.org/2000/svg">
<rect width="500" height="215" fill="#0b1a2a"/>
<text x="5" y="24" font-size="8" fill="#556">23.6</text>
<text x="5" y="190" font-size="8" fill="#556">12.1</text>
<polyline fill="none" stroke="#00ffcc" stroke-width="2" points="20.0,175.2 55.4,178.2 90.8,178.2 126.2,178.2 161.5,179.7 196.9,190.0 232.3,20.0 267.7,62.9 303.1,62.9 338.5,91.0 373.8,172.3 409.2,184.1 444.6,49.6 480.0,83.6"/>
<polyline fill="none" stroke="#ff9944" stroke-width="1" stroke-dasharray="3,2" opacity="0.7" points="20.0,176.7 55.4,177.2 90.8,178.2 126.2,178.7 161.5,182.6 196.9,129.9 232.3,91.0 267.7,48.6 303.1,72.2 338.5,108.7 373.8,149.1 409.2,135.3 444.6,105.7 480.0,66.6"/>
<text x="10" y="13" font-size="9" fill="#aaa">Temp (°C) — last 14 readings</text>
<text x="495" y="13" font-size="7" fill="#445" text-anchor="end">— MA3</text>
<text x="10" y="212" font-size="8" fill="#445">Updated: 2026-04-17 01:28 UTC</text>
</svg>