<svg width="500" height="215" viewBox="0 0 500 215" xmlns="http://www.w3.org/2000/svg">
<rect width="500" height="215" fill="#0b1a2a"/>
<text x="5" y="24" font-size="8" fill="#556">23.6</text>
<text x="5" y="190" font-size="8" fill="#556">12.1</text>
<polyline fill="none" stroke="#00ffcc" stroke-width="2" points="20.0,175.2 44.2,178.2 68.4,178.2 92.6,178.2 116.8,179.7 141.1,190.0 165.3,20.0 189.5,62.9 213.7,62.9 237.9,91.0 262.1,172.3 286.3,184.1 310.5,49.6 334.7,83.6 358.9,160.4 383.2,182.6 407.4,71.7 431.6,64.3 455.8,148.6 480.0,181.1"/>
<polyline fill="none" stroke="#ff9944" stroke-width="1" stroke-dasharray="3,2" opacity="0.7" points="20.0,176.7 44.2,177.2 68.4,178.2 92.6,178.7 116.8,182.6 141.1,129.9 165.3,91.0 189.5,48.6 213.7,72.2 237.9,108.7 262.1,149.1 286.3,135.3 310.5,105.7 334.7,97.9 358.9,142.2 383.2,138.3 407.4,106.2 431.6,94.9 455.8,131.4 480.0,164.9"/>
<text x="10" y="13" font-size="9" fill="#aaa">Temp (°C) — last 20 readings</text>
<text x="495" y="13" font-size="7" fill="#445" text-anchor="end">— MA3</text>
<text x="10" y="212" font-size="8" fill="#445">Updated: 2026-04-18 12:38 UTC</text>
</svg>