<svg width="500" height="215" viewBox="0 0 500 215" xmlns="http://www.w3.org/2000/svg">
<rect width="500" height="215" fill="#0b1a2a"/>
<text x="5" y="24" font-size="8" fill="#556">31.7</text>
<text x="5" y="190" font-size="8" fill="#556">19.1</text>
<polyline fill="none" stroke="#00ffcc" stroke-width="2" points="20.0,61.8 44.2,160.3 68.4,190.0 92.6,33.5 116.8,52.4 141.1,160.3 165.3,181.9 189.5,20.0 213.7,76.7 237.9,169.8 262.1,169.8 286.3,32.1 310.5,88.8 334.7,164.4 358.9,184.6 383.2,55.1 407.4,114.4 431.6,181.9 455.8,164.4 480.0,92.9"/>
<polyline fill="none" stroke="#ff9944" stroke-width="1" stroke-dasharray="3,2" opacity="0.7" points="20.0,111.1 44.2,137.4 68.4,127.9 92.6,92.0 116.8,82.1 141.1,131.5 165.3,120.7 189.5,92.9 213.7,88.8 237.9,138.7 262.1,123.9 286.3,96.9 310.5,95.1 334.7,145.9 358.9,134.7 383.2,118.0 407.4,117.1 431.6,153.6 455.8,146.4 480.0,128.6"/>
<text x="10" y="13" font-size="9" fill="#aaa">Temp (°C) — last 20 readings</text>
<text x="495" y="13" font-size="7" fill="#445" text-anchor="end">— MA3</text>
<text x="10" y="212" font-size="8" fill="#445">Updated: 2026-08-13 18:47 UTC</text>
</svg>